<svg xmlns="http://www.w3.org/2000/svg" viewBox="0 0 720 540" fill="none">
  <defs>
    <linearGradient id="g1" x1="0" y1="0" x2="1" y2="1">
      <stop offset="0%" stop-color="#f5f5f5"/>
      <stop offset="100%" stop-color="#ebebeb"/>
    </linearGradient>
  </defs>
  <!-- Canvas -->
  <rect width="720" height="540" fill="url(#g1)" rx="0"/>
  <!-- Abstract data waves — representing sentiment trends -->
  <g opacity="0.55">
    <path d="M0 320 Q90 260 180 310 Q270 360 360 280 Q450 200 540 250 Q630 300 720 240 L720 540 L0 540Z" fill="rgba(2,185,64,0.10)"/>
    <path d="M0 360 Q90 320 180 350 Q270 380 360 330 Q450 280 540 310 Q630 340 720 290 L720 540 L0 540Z" fill="rgba(48,48,52,0.07)"/>
    <path d="M0 400 Q90 370 180 390 Q270 410 360 370 Q450 340 540 360 Q630 380 720 350 L720 540 L0 540Z" fill="rgba(255,36,66,0.08)"/>
  </g>
  <!-- Trend lines -->
  <path d="M0 320 Q90 260 180 310 Q270 360 360 280 Q450 200 540 250 Q630 300 720 240" stroke="#02b940" stroke-width="2.5" stroke-linecap="round" fill="none" opacity="0.45"/>
  <path d="M0 360 Q90 320 180 350 Q270 380 360 330 Q450 280 540 310 Q630 340 720 290" stroke="rgba(48,48,52,0.30)" stroke-width="2.5" stroke-linecap="round" fill="none" opacity="0.45"/>
  <path d="M0 400 Q90 370 180 390 Q270 410 360 370 Q450 340 540 360 Q630 380 720 350" stroke="#ff2442" stroke-width="2.5" stroke-linecap="round" fill="none" opacity="0.45"/>
  <!-- Central brand element: soft rounded square with subtle red accent -->
  <g transform="translate(290, 120)">
    <rect width="140" height="140" rx="24" fill="#ffffff"/>
    <!-- Abstract chart inside -->
    <rect x="28" y="70" width="16" height="42" rx="4" fill="rgba(48,48,52,0.10)"/>
    <rect x="52" y="48" width="16" height="64" rx="4" fill="rgba(48,48,52,0.14)"/>
    <rect x="76" y="32" width="16" height="80" rx="4" fill="#ff2442" opacity="0.85"/>
    <rect x="100" y="56" width="16" height="56" rx="4" fill="rgba(48,48,52,0.12)"/>
    <!-- Accent dot on the tallest bar -->
    <circle cx="84" cy="28" r="4" fill="#ff2442"/>
  </g>
  <!-- Bottom decorative dots — subtle data points -->
  <g opacity="0.2">
    <circle cx="280" cy="440" r="3" fill="rgba(48,48,52,0.5)"/>
    <circle cx="320" cy="435" r="3" fill="rgba(48,48,52,0.5)"/>
    <circle cx="360" cy="442" r="3" fill="rgba(48,48,52,0.5)"/>
    <circle cx="400" cy="430" r="3" fill="rgba(48,48,52,0.5)"/>
    <circle cx="440" cy="438" r="3" fill="rgba(48,48,52,0.5)"/>
  </g>
</svg>